<mxfile host="app.diagrams.net" modified="2024-06-08T02:42:29.875Z" agent="Mozilla/5.0 (Macintosh; Intel Mac OS X 10_15_7) AppleWebKit/537.36 (KHTML, like Gecko) Chrome/125.0.0.0 Safari/537.36" etag="J7dHfnaCq7nvTfpv70N3" version="24.5.2" type="github">
  <diagram name="Page-1" id="_aEBt2x7KC-kYig_-Kjo">
    <mxGraphModel dx="1262" dy="1396" grid="0" gridSize="10" guides="1" tooltips="1" connect="1" arrows="1" fold="1" page="0" pageScale="1" pageWidth="850" pageHeight="1100" math="0" shadow="0">
      <root>
        <mxCell id="0" />
        <mxCell id="1" parent="0" />
        <mxCell id="ORbbMhd3TZm8tsN30WiI-2" value="" style="ellipse;shape=cloud;whiteSpace=wrap;html=1;" vertex="1" parent="1">
          <mxGeometry x="451" y="-122" width="120" height="80" as="geometry" />
        </mxCell>
        <mxCell id="ORbbMhd3TZm8tsN30WiI-7" style="edgeStyle=none;curved=1;rounded=0;orthogonalLoop=1;jettySize=auto;html=1;exitX=0.5;exitY=1;exitDx=0;exitDy=0;fontSize=12;startSize=8;endSize=8;" edge="1" parent="1" source="ORbbMhd3TZm8tsN30WiI-3">
          <mxGeometry relative="1" as="geometry">
            <mxPoint x="355" y="79" as="targetPoint" />
          </mxGeometry>
        </mxCell>
        <mxCell id="ORbbMhd3TZm8tsN30WiI-3" value="Fw" style="ellipse;whiteSpace=wrap;html=1;aspect=fixed;" vertex="1" parent="1">
          <mxGeometry x="335" y="-2" width="40" height="40" as="geometry" />
        </mxCell>
        <mxCell id="ORbbMhd3TZm8tsN30WiI-4" value="" style="endArrow=none;html=1;rounded=0;fontSize=12;startSize=8;endSize=8;curved=1;" edge="1" parent="1">
          <mxGeometry width="50" height="50" relative="1" as="geometry">
            <mxPoint x="220" y="78" as="sourcePoint" />
            <mxPoint x="458" y="76" as="targetPoint" />
          </mxGeometry>
        </mxCell>
        <mxCell id="ORbbMhd3TZm8tsN30WiI-8" style="edgeStyle=none;curved=1;rounded=0;orthogonalLoop=1;jettySize=auto;html=1;exitX=0.5;exitY=0;exitDx=0;exitDy=0;fontSize=12;startSize=8;endSize=8;" edge="1" parent="1" source="ORbbMhd3TZm8tsN30WiI-5">
          <mxGeometry relative="1" as="geometry">
            <mxPoint x="266" y="80" as="targetPoint" />
          </mxGeometry>
        </mxCell>
        <mxCell id="ORbbMhd3TZm8tsN30WiI-5" value="" style="rounded=1;whiteSpace=wrap;html=1;strokeWidth=2;fillWeight=4;hachureGap=8;hachureAngle=45;fillColor=#1ba1e2;sketch=1;" vertex="1" parent="1">
          <mxGeometry x="243" y="120" width="44" height="33" as="geometry" />
        </mxCell>
        <mxCell id="ORbbMhd3TZm8tsN30WiI-9" value="" style="ellipse;whiteSpace=wrap;html=1;strokeWidth=2;fillWeight=2;hachureGap=8;fillColor=#990000;fillStyle=dots;sketch=1;" vertex="1" parent="1">
          <mxGeometry x="310" y="120" width="44" height="40" as="geometry" />
        </mxCell>
        <mxCell id="ORbbMhd3TZm8tsN30WiI-10" value="" style="ellipse;whiteSpace=wrap;html=1;strokeWidth=2;fillWeight=2;hachureGap=8;fillColor=#990000;fillStyle=dots;sketch=1;" vertex="1" parent="1">
          <mxGeometry x="360" y="120" width="44" height="40" as="geometry" />
        </mxCell>
      </root>
    </mxGraphModel>
  </diagram>
</mxfile>
